<svg width="20" height="20" viewBox="0 0 20 20" fill="none" xmlns="http://www.w3.org/2000/svg">
<path d="M6.99219 3.56473C6.69678 3.10761 5.99854 2.97316 5.54199 3.32273C4.06494 4.50586 3.125 6.28056 3.125 8.27038H10L6.99219 3.56473ZM16.4453 5.689H15.1562C14.1895 5.689 13.4375 6.46879 13.4375 7.40992V9.13084H3.125C3.125 10.5022 3.74268 11.7391 4.73633 12.6534C3.79639 12.8954 3.125 13.7289 3.125 14.7238C3.125 15.9339 4.06494 16.875 5.27344 16.875C6.45508 16.875 7.42188 15.9339 7.42188 14.7238C7.42188 14.5087 7.36816 14.2667 7.2876 14.0516C7.87842 14.2129 8.49609 14.2936 9.14062 14.2936C9.7583 14.2936 10.376 14.2129 10.9668 14.0516C10.8862 14.2667 10.8594 14.5087 10.8594 14.7238C10.8594 15.9339 11.7993 16.875 13.0078 16.875C14.1895 16.875 15.1562 15.9339 15.1562 14.7238C15.1562 13.7289 14.458 12.8954 13.5181 12.6534C14.5386 11.7391 15.1562 10.5022 15.1562 9.13084V7.40992H16.4453C16.6602 7.40992 16.875 7.22169 16.875 6.97969V6.11923C16.875 5.90411 16.6602 5.689 16.4453 5.689ZM5.27344 15.5843C4.79004 15.5843 4.41406 15.2079 4.41406 14.7238C4.41406 14.2667 4.79004 13.8634 5.27344 13.8634C5.72998 13.8634 6.13281 14.2667 6.13281 14.7238C6.13281 15.2079 5.72998 15.5843 5.27344 15.5843ZM13.8672 14.7238C13.8672 15.2079 13.4644 15.5843 13.0078 15.5843C12.5244 15.5843 12.1484 15.2079 12.1484 14.7238C12.1484 14.2667 12.5244 13.8634 13.0078 13.8634C13.4644 13.8634 13.8672 14.2667 13.8672 14.7238Z" fill="#474C5A"/>
</svg>
