<svg width="20" height="20" viewBox="0 0 20 20" fill="none" xmlns="http://www.w3.org/2000/svg">
<path d="M17.4555 2.35159C17.3829 2.2464 17.2803 2.1875 17.1727 2.1875H11.6906C11.583 2.1875 11.4804 2.2464 11.4079 2.35159C11.335 2.45627 11.299 2.59655 11.308 2.73868L11.3529 3.4375H17.5104L17.5553 2.73868C17.5644 2.59655 17.5284 2.45631 17.4555 2.35159Z" fill="#474C5A"/>
<path d="M12.1028 14.0625H16.761L17.5566 4.0625H11.3066L12.1028 14.0625Z" fill="#474C5A"/>
<path d="M11.9316 15.8151C11.9316 16.5731 12.4136 17.1875 13.0083 17.1875H15.855C16.4497 17.1875 16.9316 16.5731 16.9316 15.8151V14.0625H11.9316V15.8151Z" fill="#474C5A"/>
<path d="M10.3492 13.4375H5.24702L3.19567 14.3972C3.19113 14.3993 3.18617 14.4003 3.18164 14.4025V15.3616C3.18164 16.3703 3.97427 17.1875 4.95158 17.1875H8.91173C9.88897 17.1875 10.6816 16.3703 10.6816 15.3616V13.7804C10.6816 13.591 10.5329 13.4375 10.3492 13.4375Z" fill="#474C5A"/>
<path d="M8.52109 12.1875L6.30664 12.8125H9.17019C9.26132 12.8125 9.3456 12.7827 9.39346 12.7346C9.44061 12.6859 9.44438 12.6259 9.40316 12.5751C9.2603 12.4021 9.00876 12.274 8.70834 12.2206L8.52109 12.1875Z" fill="#474C5A"/>
<path d="M8.78588 9.5885C8.8162 9.4836 8.81322 9.36787 8.77751 9.26598L8.69056 9.01937C8.5624 8.65379 8.28377 8.4375 7.99241 8.4375C7.88676 8.4375 7.77916 8.46661 7.67658 8.52604L2.38146 11.6319C1.99623 11.8578 1.82559 12.4453 2.00008 12.9436L2.08666 13.1909C2.1224 13.2921 2.18783 13.3718 2.26862 13.411C2.30518 13.4286 2.3443 13.4375 2.38295 13.4375C2.42942 13.4375 2.47545 13.425 2.51795 13.4002L8.61532 9.82392C8.694 9.77772 8.7551 9.69351 8.78588 9.5885Z" fill="#474C5A"/>
</svg>
