<svg width="20" height="20" viewBox="0 0 20 20" fill="none" xmlns="http://www.w3.org/2000/svg">
<path d="M5.73773 11.888C5.73773 10.2886 5.73629 8.69344 5.7334 7.1026C5.7334 6.82693 5.84178 6.66325 6.09755 6.55988C6.50938 6.3962 6.91688 6.20668 7.33304 6.043C7.50211 5.97408 7.57147 5.87932 7.55847 5.69411C7.54546 5.50889 7.55413 5.47013 7.77956 5.47013C8.10035 5.47013 8.41681 5.47443 8.73761 5.46582C8.82865 5.46582 8.86766 5.49166 8.85032 5.58212C8.78963 5.87071 8.93269 5.99993 9.19279 6.09038C9.57428 6.22822 9.94276 6.40912 10.3199 6.56419C10.5627 6.66326 10.6667 6.82693 10.6667 7.08537V16.6562C10.6667 17.087 10.4196 17.3325 9.98611 17.3325H6.41834C5.9805 17.3325 5.73773 17.087 5.73773 16.6562V11.888Z" fill="#474C5A"/>
<path d="M17.2624 13.6704V16.7575C17.2624 17.138 17.0732 17.3326 16.6906 17.3326H12.1719C11.7936 17.3326 11.6001 17.138 11.6001 16.7575C11.6001 14.7254 11.6044 12.6933 11.6001 10.6612C11.5991 10.3912 11.6609 10.1246 11.7807 9.88295C12.374 8.69539 12.9645 7.50784 13.552 6.32028C13.595 6.22948 13.6423 6.19922 13.7455 6.19922C14.207 6.20498 14.667 6.20498 15.1256 6.19922C15.2159 6.19922 15.2675 6.22084 15.3105 6.30731C15.9009 7.50639 16.4957 8.70404 17.0947 9.90024C17.2097 10.131 17.2686 10.3858 17.2667 10.6439C17.2639 11.6556 17.2624 12.6645 17.2624 13.6704Z" fill="#474C5A"/>
<path d="M13.289 2.60392H14.6383C14.7088 2.59988 14.7784 2.6213 14.8342 2.66419L15.6132 3.24111C15.6829 3.29277 15.7264 3.34013 15.709 3.42624C15.7068 3.44195 15.7068 3.45789 15.709 3.4736C15.8222 3.94719 15.5131 4.27009 15.2825 4.61883C15.252 4.67049 15.2085 4.66619 15.1562 4.66619H13.6111C13.5574 4.66518 13.5049 4.65034 13.4588 4.62313L11.8788 3.73192C11.8531 3.71969 11.8317 3.6999 11.8177 3.67526C11.8037 3.65061 11.7977 3.62229 11.8005 3.59415C11.8048 3.29708 11.8048 3.00431 11.8005 2.70724C11.7961 2.60391 11.8397 2.59961 11.9223 2.59961L13.289 2.60392Z" fill="#474C5A"/>
<path d="M8.23307 5.19961H7.19604C7.10962 5.19961 7.06641 5.19093 7.06641 5.07807C7.07505 4.51814 7.06641 3.95387 7.07073 3.39393C7.07187 3.18287 7.15614 2.98084 7.30512 2.832C7.4541 2.68315 7.65567 2.59961 7.86579 2.59961H8.609C8.81574 2.60072 9.01383 2.68312 9.16082 2.82916C9.30782 2.9752 9.39203 3.17326 9.39542 3.38091C9.40406 3.94953 9.39542 4.51814 9.39974 5.08675C9.39974 5.18225 9.36517 5.19961 9.28307 5.19961H8.23307Z" fill="#474C5A"/>
<path d="M3.04634 17.3324C2.87583 17.3281 2.76925 17.177 2.80762 16.9914C2.95682 16.2706 3.11028 15.554 3.25949 14.8332C3.63462 13.0289 4.01117 11.2232 4.38915 9.41611C4.39889 9.3913 4.40464 9.36507 4.4062 9.33842C4.41046 9.20461 4.46588 9.17439 4.5895 9.21756C4.71313 9.26072 4.85807 9.22619 4.91348 9.31252C4.9689 9.39884 4.89217 9.52402 4.86659 9.63193C4.34936 12.1095 3.83071 14.5886 3.31064 17.0691C3.27227 17.2504 3.18275 17.3367 3.04634 17.3324Z" fill="#474C5A"/>
<path d="M5.92294 4.81751C5.79605 5.41832 5.66917 6.02348 5.53791 6.62865C5.37602 7.39055 5.21413 8.1568 5.05662 8.9187C5.03037 9.0406 5.00411 9.0972 4.85973 9.04931C4.71634 8.99628 4.56605 8.96402 4.41344 8.95353C4.2428 8.94482 4.25593 8.8621 4.28218 8.74455C4.42219 8.09585 4.55783 7.4515 4.69784 6.8028C4.83785 6.1541 4.99974 5.40526 5.14413 4.70431C5.166 4.59982 5.20101 4.58676 5.29289 4.60853L5.84856 4.73043C5.89669 4.73914 5.95794 4.73914 5.92294 4.81751Z" fill="#474C5A"/>
<path d="M3.89241 7.4922C3.98519 7.52829 4.02793 7.57072 4.00846 7.64719C3.98899 7.72366 3.92328 7.76562 3.83716 7.74662L3.12882 7.59559C3.05457 7.58182 2.96875 7.52989 2.94516 7.68013C2.92158 7.83038 2.94485 7.83117 3.06391 7.85049C3.29807 7.88738 3.52574 7.94975 3.76037 7.9963C3.86186 8.0126 3.92614 8.05978 3.90413 8.16348C3.88213 8.26718 3.79695 8.2675 3.71082 8.2485C3.47397 8.19626 3.23585 8.15763 3.00248 8.09747C2.88469 8.06454 2.85983 8.1103 2.83561 8.2083C2.81139 8.3063 2.8497 8.33733 2.94153 8.35411L3.83748 8.54045C4.00752 8.57275 4.09381 8.51622 4.13006 8.34793C4.36263 7.25027 4.59297 6.14692 4.82554 5.04927C4.8648 4.8634 4.80653 4.78107 4.61671 4.74007C4.31922 4.67532 4.0165 4.62244 3.72028 4.54407C3.577 4.50465 3.6028 4.59632 3.58112 4.66709C3.55943 4.73786 3.57542 4.78741 3.66724 4.8042C3.91154 4.85027 4.15061 4.90821 4.3949 4.95428C4.49464 4.97454 4.5624 5.01381 4.53866 5.12147C4.51491 5.22913 4.43147 5.22549 4.34535 5.20649C4.12037 5.15947 3.89191 5.12036 3.66646 5.06369C3.56275 5.04168 3.49594 5.02173 3.46839 5.17024C3.44085 5.31875 3.54265 5.30212 3.61912 5.32159L4.26856 5.45616C4.36435 5.47469 4.46061 5.50287 4.42989 5.62636C4.39918 5.74985 4.31701 5.73259 4.22297 5.71011L3.56165 5.57032C3.47378 5.55528 3.39414 5.51079 3.36486 5.66326C3.33557 5.81572 3.40491 5.80844 3.50466 5.8287C3.74103 5.87129 3.97789 5.92353 4.21474 5.97578C4.29121 5.99525 4.34361 6.03721 4.32857 6.12508C4.31353 6.21294 4.24118 6.2378 4.15553 6.22846L4.07906 6.20899C3.85012 6.16023 3.612 6.1216 3.38655 6.06492C3.25118 6.02899 3.28317 6.12809 3.261 6.18921C3.23884 6.25032 3.23377 6.30478 3.33526 6.32109C3.58921 6.36668 3.83619 6.42811 4.09236 6.4794C4.19385 6.49571 4.23928 6.5535 4.21854 6.64358C4.19781 6.73367 4.12498 6.74887 4.03885 6.72987C3.79804 6.67589 3.552 6.63377 3.31294 6.57583C3.21098 6.54987 3.17551 6.57678 3.15525 6.67652C3.13498 6.77627 3.15842 6.81965 3.2599 6.83596C3.49232 6.8768 3.72347 6.93126 3.95415 6.97606C4.05389 6.99633 4.14445 7.02672 4.11374 7.15022C4.08303 7.27371 3.99468 7.24901 3.9046 7.22827C3.66205 7.17824 3.41601 7.13613 3.17694 7.07819C3.06137 7.05096 3.06691 7.12426 3.05266 7.18886C3.03841 7.25345 3.01846 7.32027 3.12391 7.33831C3.39147 7.38518 3.65382 7.44391 3.89241 7.4922Z" fill="#474C5A"/>
<path d="M14.4161 5.99882C14.1989 5.99882 13.9817 5.99437 13.7645 5.99882C13.6878 6.00326 13.6665 5.9766 13.6665 5.89664C13.6708 5.60788 13.6708 5.32356 13.6665 5.03479C13.6665 4.95483 13.6878 4.93262 13.7645 4.93262C14.2074 4.93706 14.6547 4.93706 15.1019 4.93262C15.1785 4.93262 15.1998 4.95483 15.1998 5.03479C15.1956 5.32356 15.1956 5.60788 15.1998 5.89664C15.1998 5.9766 15.1785 5.99882 15.1019 5.99882C14.8719 5.99437 14.6461 5.99882 14.4161 5.99882Z" fill="#474C5A"/>
<path d="M11.5997 3.00805C11.5997 3.39961 11.5997 3.39521 11.2134 3.39961C11.0935 3.39961 11.0624 3.37321 11.0668 3.25442C11.0713 3.13564 11.0713 2.88486 11.0668 2.69568C11.0668 2.62529 11.089 2.59449 11.1601 2.60329H11.1778C11.5997 2.59009 11.5997 2.59009 11.5997 3.00805Z" fill="#474C5A"/>
<path d="M12.1333 5.71551L12.5381 4.47881C12.5508 4.44434 12.555 4.36247 12.6224 4.41848C12.6899 4.4745 12.8375 4.47881 12.7911 4.57361C12.5971 4.97004 12.3779 5.34924 12.1713 5.73275L12.1333 5.71551Z" fill="#474C5A"/>
</svg>
