<svg width="32" height="33" viewBox="0 0 32 33" fill="none" xmlns="http://www.w3.org/2000/svg">
<path d="M11.5336 30.5C11.9502 29.9083 11.9919 29.2916 11.9836 28.65C11.9669 27.3583 11.9836 26.0666 11.9752 24.7833C11.9752 24.5666 12.0169 24.5083 12.2419 24.5083H16.7919C17.3002 24.5083 17.4669 24.3416 17.4669 23.8416V16.2083C17.4669 15.7 17.3086 15.5333 16.8002 15.5333H11.7502C11.5419 15.5333 11.4669 15.5 11.4752 15.2666C11.4836 14.175 11.4752 13.0833 11.4836 11.9916C11.4802 11.669 11.5413 11.3489 11.6632 11.0501C11.7852 10.7514 11.9655 10.4799 12.1937 10.2518C12.4219 10.0236 12.6933 9.84326 12.992 9.72132C13.2908 9.59938 13.6109 9.53829 13.9336 9.54163H17.9836C19.3919 9.54997 20.4586 10.6 20.4586 12V30.25C20.4586 30.4166 20.4586 30.5083 20.2419 30.5083L11.5336 30.5Z" fill="#474C5A"/>
<path d="M18.3496 14.3667H11.4746V30.4992H18.3496V14.3667Z" fill="#474C5A"/>
<path d="M10.9832 24.2749V28.9499C10.9832 29.9583 10.4332 30.4999 9.41652 30.4999H4.49152C3.56652 30.4999 2.99985 29.9333 2.99985 29.0083C2.99985 28.6749 2.85819 28.2416 3.05819 28.0582C3.25819 27.8749 3.67485 28.0082 3.99152 28.0082C5.11652 27.9999 6.23318 28.0082 7.35818 28.0082C7.80818 27.9999 7.98318 27.8332 7.98318 27.3916C7.99152 25.1332 7.99152 22.8832 7.98318 20.6249C7.98318 20.1999 7.80818 20.0249 7.37485 20.0249C6.00818 20.0249 4.63319 20.0166 3.26652 20.0249C3.04985 20.0332 2.97485 19.9832 2.99152 19.7582C3.00819 19.5332 2.98319 19.2832 3.04985 19.0499C3.21652 18.4749 3.69152 18.0332 4.28319 18.0416C5.29152 18.0416 6.06652 17.2332 5.99152 16.2666C5.97485 16.0749 6.03318 16.0249 6.22485 16.0249C6.74152 16.0416 7.26652 16.0416 7.78318 16.0332C7.94985 16.0249 8.00818 16.0666 7.99152 16.2332C7.89152 17.2166 8.69985 18.0499 9.72485 18.0416C10.4498 18.0416 10.9748 18.6832 10.9832 19.4499V24.2749Z" fill="#474C5A"/>
<path d="M3.00052 23.9833C3.00052 23.075 3.00885 22.175 2.99219 21.275C2.99219 21.0667 3.04219 21.0167 3.25052 21.0167C4.41719 21.025 5.57552 21.025 6.74219 21.0167C6.94219 21.0167 6.99219 21.0667 6.99219 21.275C6.98108 23.0972 6.98108 24.925 6.99219 26.7583C6.99219 26.9583 6.94219 27.0167 6.74219 27.0083C5.57552 27 4.41719 27 3.25052 27.0083C3.04219 27.0167 2.99219 26.9583 2.99219 26.7583C3.00885 25.8333 3.00052 24.9083 3.00052 23.9833Z" fill="#474C5A"/>
<path d="M24.1076 26.5082C23.3159 26.5082 22.5159 26.4999 21.7159 26.5082C21.5242 26.5166 21.4492 26.4832 21.4492 26.2666C21.4659 25.0916 21.4576 23.9249 21.4492 22.7499C21.4492 22.5499 21.5076 22.5082 21.6909 22.5166C23.2659 22.5249 24.8492 22.5082 26.4242 22.5166C26.6869 22.5144 26.9474 22.5639 27.1909 22.6624C27.4344 22.7609 27.6561 22.9064 27.8433 23.0905C28.0306 23.2747 28.1798 23.494 28.2823 23.7358C28.3848 23.9776 28.4387 24.2373 28.4409 24.4999C28.4409 25.6166 27.5576 26.4999 26.4159 26.5082C25.6492 26.5166 24.8826 26.5082 24.1076 26.5082Z" fill="#474C5A"/>
<path d="M25.4159 28.5H21.7076C21.4992 28.5 21.4492 28.45 21.4492 28.2417C21.4576 27.5 21.4492 27.5 22.2076 27.5H29.1575C29.3909 27.5 29.4492 27.55 29.4409 27.7833C29.4325 28.5 29.4409 28.5 28.7159 28.5H25.4159Z" fill="#474C5A"/>
<path d="M14.9751 4.77477C14.9751 4.2831 14.9751 3.7831 14.9668 3.2831C14.9668 3.10811 15.0168 3.05811 15.1918 3.05811C15.7085 3.07477 16.2251 3.07477 16.7501 3.05811C16.9251 3.05811 16.9751 3.10811 16.9668 3.2831C16.9557 4.29977 16.9557 5.31644 16.9668 6.3331C16.9751 6.5081 16.9251 6.56644 16.7501 6.5581C16.2251 6.54977 15.7085 6.54977 15.1918 6.5581C15.0168 6.56644 14.9668 6.51643 14.9668 6.3331C14.9751 5.81643 14.9751 5.29977 14.9751 4.77477Z" fill="#474C5A"/>
<path d="M28.2659 29.5C28.2715 29.5161 28.2743 29.533 28.2742 29.55C28.1325 30.5 28.1325 30.5 27.1742 30.5C25.3659 30.5 23.5492 30.4917 21.7326 30.5083C21.4909 30.5083 21.4492 30.4417 21.4492 30.2167C21.4659 29.5 21.4492 29.5 22.1742 29.5H28.2659Z" fill="#474C5A"/>
<path d="M6.96788 15.0332C6.55121 15.0332 6.13455 15.0249 5.72621 15.0415C5.55955 15.0415 5.48455 15.0165 5.49288 14.8249C5.50955 14.4665 5.50955 14.0999 5.49288 13.7332C5.48455 13.5582 5.55121 13.5332 5.70121 13.5332C6.56788 13.5415 7.42621 13.5415 8.29288 13.5332C8.46788 13.5332 8.49288 13.5999 8.49288 13.7499C8.48454 14.1082 8.47621 14.4749 8.49288 14.8415C8.50121 15.0165 8.42621 15.0415 8.27621 15.0415L6.96788 15.0332Z" fill="#474C5A"/>
<path d="M25.4409 11.5499C25.4365 11.8158 25.3272 12.0693 25.1368 12.255C24.9463 12.4408 24.6902 12.5438 24.4242 12.5415C24.1633 12.5308 23.9165 12.4201 23.735 12.2324C23.5535 12.0447 23.4511 11.7943 23.4492 11.5332C23.474 11.2849 23.5906 11.0549 23.7763 10.8882C23.9619 10.7215 24.2032 10.6303 24.4527 10.6324C24.7021 10.6344 24.9418 10.7297 25.1247 10.8995C25.3075 11.0692 25.4203 11.3012 25.4409 11.5499Z" fill="#474C5A"/>
<path d="M24.4409 19.5248C24.1742 19.5183 23.9207 19.4072 23.7352 19.2154C23.5497 19.0237 23.447 18.7667 23.4493 18.4999C23.4542 18.3029 23.5172 18.1117 23.6304 17.9504C23.7436 17.7891 23.902 17.6649 24.0855 17.5933C24.2691 17.5217 24.4698 17.5059 24.6623 17.5479C24.8548 17.59 25.0306 17.688 25.1677 17.8296C25.3047 17.9712 25.3968 18.1501 25.4325 18.3439C25.4681 18.5377 25.4457 18.7378 25.3681 18.9189C25.2904 19.1 25.161 19.2541 24.9961 19.3619C24.8311 19.4698 24.638 19.5264 24.4409 19.5248Z" fill="#474C5A"/>
<path d="M15.9918 8.54981H14.7168C14.5418 8.55814 14.4668 8.53314 14.4668 8.32481C14.4668 7.54981 14.4585 7.5498 15.2251 7.5498C15.9918 7.5498 16.5585 7.55814 17.2251 7.5498C17.3918 7.5498 17.4751 7.56647 17.4751 7.77481C17.4751 8.54981 17.4835 8.54981 16.7085 8.54981H15.9918Z" fill="#474C5A"/>
<path d="M13.8754 4.05818C12.4338 4.05818 12.4421 4.05819 12.4754 3.31652C12.4838 3.13319 12.5838 3.04985 12.9588 3.05818C13.6421 3.07485 14.3171 3.06652 15.0004 3.05818C15.2754 3.05818 15.3671 3.09152 15.3838 3.24985C15.4421 4.05818 15.4504 4.05818 13.8754 4.05818Z" fill="#474C5A"/>
<path d="M29.4247 15.0335C29.5239 15.0302 29.6218 15.0565 29.706 15.109C29.7902 15.1615 29.8568 15.2379 29.8975 15.3285C29.9381 15.419 29.9509 15.5196 29.9342 15.6174C29.9175 15.7152 29.872 15.8058 29.8037 15.8777C29.7353 15.9496 29.6471 15.9996 29.5502 16.0212C29.4534 16.0428 29.3523 16.0351 29.2598 15.9991C29.1674 15.9631 29.0877 15.9004 29.031 15.8189C28.9743 15.7375 28.9431 15.641 28.9414 15.5418C28.9412 15.4112 28.9914 15.2856 29.0813 15.1909C29.1713 15.0963 29.2943 15.0399 29.4247 15.0335Z" fill="#030303"/>
<path d="M23.9156 25.0082C23.5989 25.0082 23.2906 25.0165 22.9739 25.0082C22.6573 24.9999 22.4489 24.7915 22.4573 24.5082C22.4656 24.2249 22.6656 24.0249 22.9823 24.0165C23.5406 24.0082 24.1073 24.0082 24.6656 24.0165C24.9891 24.0238 25.3038 23.911 25.5489 23.6999C25.8406 23.4582 26.1239 23.4582 26.3239 23.6915C26.5239 23.9249 26.4739 24.2082 26.2072 24.4499C25.8242 24.7951 25.331 24.9929 24.8156 25.0082C24.5156 25.0165 24.2156 25.0082 23.9156 25.0082Z" fill="#FEFEFE"/>
</svg>
